<svg enable-background="new 0 0 480 480" viewBox="0 0 480 480" xmlns="http://www.w3.org/2000/svg" xmlns:xlink="http://www.w3.org/1999/xlink">
	<path d="m32 112h32v16h-32z" fill="#EC547B"/><path d="m32 160h32v16h-32z" fill="#EC547B"/><path d="m32 208h32v16h-32z" fill="#EC547B"/><path d="m32 256h32v16h-32z" fill="#EC547B"/><path d="m32 304h32v16h-32z" fill="#EC547B"/><path d="m32 352h32v16h-32z" fill="#EC547B"/><path d="m32 400h32v16h-32z" fill="#EC547B"/><path d="m0 0v480h480v-480zm464 16v48h-448v-48zm-448 64h64v384h-64zm80 384v-384h368v384z" fill="#EC547B"/><g fill="#EC547B"><path d="m32 32h16v16h-16z"/><path d="m64 32h16v16h-16z"/><path d="m96 32h16v16h-16z"/><path d="m432 32h16v16h-16z"/></g><path d="m128 224h304v-112h-304zm16-96h272v80h-272z" fill="#EC547B"/><path d="m128 256h16v16h-16z" fill="#EC547B"/><path d="m160 256h272v16h-272z" fill="#EC547B"/><path d="m128 304h304v16h-304z" fill="#EC547B"/><path d="m128 352h304v16h-304z" fill="#EC547B"/><path d="m128 400h256v16h-256z" fill="#EC547B"/></svg>